<svg xmlns="http://www.w3.org/2000/svg" viewBox="0 0 512 512">
  <defs>
    <linearGradient id="grad1" x1="0%" y1="0%" x2="100%" y2="100%">
      <stop offset="0%" style="stop-color:#6366f1;stop-opacity:1" />
      <stop offset="100%" style="stop-color:#8b5cf6;stop-opacity:1" />
    </linearGradient>
  </defs>
  
  <!-- Background circle -->
  <circle cx="256" cy="256" r="256" fill="url(#grad1)"/>
  
  <!-- Brain/AI icon representing model evaluation -->
  <g transform="translate(256,256)">
    <!-- Brain shape -->
    <path d="M-80,-120 Q-120,-120 -120,-80 Q-120,-40 -100,-40 Q-100,-20 -80,0 Q-60,20 -40,40 Q-20,60 0,80 Q20,60 40,40 Q60,20 80,0 Q100,-20 100,-40 Q120,-40 120,-80 Q120,-120 80,-120 Q60,-140 0,-140 Q-60,-140 -80,-120 Z" 
          fill="white" 
          opacity="0.95"
          stroke="white"
          stroke-width="8"/>
    
    <!-- Neural network nodes -->
    <circle cx="-40" cy="-40" r="12" fill="#6366f1"/>
    <circle cx="40" cy="-40" r="12" fill="#6366f1"/>
    <circle cx="0" cy="0" r="12" fill="#8b5cf6"/>
    <circle cx="-40" cy="40" r="12" fill="#6366f1"/>
    <circle cx="40" cy="40" r="12" fill="#6366f1"/>
    
    <!-- Connection lines -->
    <line x1="-40" y1="-40" x2="0" y2="0" stroke="#6366f1" stroke-width="3" opacity="0.6"/>
    <line x1="40" y1="-40" x2="0" y2="0" stroke="#6366f1" stroke-width="3" opacity="0.6"/>
    <line x1="0" y1="0" x2="-40" y2="40" stroke="#8b5cf6" stroke-width="3" opacity="0.6"/>
    <line x1="0" y1="0" x2="40" y2="40" stroke="#8b5cf6" stroke-width="3" opacity="0.6"/>
    
    <!-- Checkmark for "evaluation" -->
    <path d="M60,60 L80,80 L120,40" 
          stroke="white" 
          stroke-width="12" 
          fill="none" 
          stroke-linecap="round" 
          stroke-linejoin="round"/>
  </g>
</svg>